<svg id="visual" viewBox="0 0 960 540" width="960" height="540" xmlns="http://www.w3.org/2000/svg" xmlns:xlink="http://www.w3.org/1999/xlink" version="1.1"><rect x="0" y="0" width="960" height="540" fill="#001220"></rect><defs><linearGradient id="grad1_0" x1="43.8%" y1="0%" x2="100%" y2="100%"><stop offset="14.444444444444446%" stop-color="#001220" stop-opacity="1"></stop><stop offset="85.55555555555554%" stop-color="#001220" stop-opacity="1"></stop></linearGradient></defs><defs><linearGradient id="grad2_0" x1="0%" y1="0%" x2="56.3%" y2="100%"><stop offset="14.444444444444446%" stop-color="#001220" stop-opacity="1"></stop><stop offset="85.55555555555554%" stop-color="#001220" stop-opacity="1"></stop></linearGradient></defs><g transform="translate(960, 0)"><path d="M0 486C-68.7 483.8 -137.3 481.7 -186 449C-234.6 416.3 -263.2 353.2 -306.9 306.9C-350.5 260.6 -409.3 231.3 -441.6 182.9C-474 134.6 -480 67.3 -486 0L0 0Z" fill="#ca7900"></path></g><g transform="translate(0, 540)"><path d="M0 -486C54.2 -452.7 108.4 -419.4 164.2 -396.3C219.9 -373.3 277.1 -360.4 328.1 -328.1C379.1 -295.8 423.7 -243.9 449 -186C474.3 -128.1 480.1 -64 486 0L0 0Z" fill="#ca7900"></path></g></svg>