<svg id="visual" viewBox="0 0 900 450" width="900" height="450" xmlns="http://www.w3.org/2000/svg" xmlns:xlink="http://www.w3.org/1999/xlink" version="1.1"><path d="M0 82L13.7 84.3C27.3 86.7 54.7 91.3 82 93.7C109.3 96 136.7 96 163.8 100.5C191 105 218 114 245.2 111.7C272.3 109.3 299.7 95.7 327 95.7C354.3 95.7 381.7 109.3 409 113.8C436.3 118.3 463.7 113.7 491 100.2C518.3 86.7 545.7 64.3 573 64.3C600.3 64.3 627.7 86.7 654.8 98.7C682 110.7 709 112.3 736.2 113.8C763.3 115.3 790.7 116.7 818 112.2C845.3 107.7 872.7 97.3 886.3 92.2L900 87L900 0L886.3 0C872.7 0 845.3 0 818 0C790.7 0 763.3 0 736.2 0C709 0 682 0 654.8 0C627.7 0 600.3 0 573 0C545.7 0 518.3 0 491 0C463.7 0 436.3 0 409 0C381.7 0 354.3 0 327 0C299.7 0 272.3 0 245.2 0C218 0 191 0 163.8 0C136.7 0 109.3 0 82 0C54.7 0 27.3 0 13.7 0L0 0Z" fill="#ff76b0"></path><path d="M0 222L13.7 211.5C27.3 201 54.7 180 82 168.7C109.3 157.3 136.7 155.7 163.8 166.2C191 176.7 218 199.3 245.2 211.3C272.3 223.3 299.7 224.7 327 221.7C354.3 218.7 381.7 211.3 409 216.7C436.3 222 463.7 240 491 240.7C518.3 241.3 545.7 224.7 573 220.8C600.3 217 627.7 226 654.8 220.8C682 215.7 709 196.3 736.2 189.7C763.3 183 790.7 189 818 206.2C845.3 223.3 872.7 251.7 886.3 265.8L900 280L900 85L886.3 90.2C872.7 95.3 845.3 105.7 818 110.2C790.7 114.7 763.3 113.3 736.2 111.8C709 110.3 682 108.7 654.8 96.7C627.7 84.7 600.3 62.3 573 62.3C545.7 62.3 518.3 84.7 491 98.2C463.7 111.7 436.3 116.3 409 111.8C381.7 107.3 354.3 93.7 327 93.7C299.7 93.7 272.3 107.3 245.2 109.7C218 112 191 103 163.8 98.5C136.7 94 109.3 94 82 91.7C54.7 89.3 27.3 84.7 13.7 82.3L0 80Z" fill="#ff509a"></path><path d="M0 289L13.7 280.8C27.3 272.7 54.7 256.3 82 248.8C109.3 241.3 136.7 242.7 163.8 249.3C191 256 218 268 245.2 270.3C272.3 272.7 299.7 265.3 327 257.8C354.3 250.3 381.7 242.7 409 254.7C436.3 266.7 463.7 298.3 491 301.3C518.3 304.3 545.7 278.7 573 272.7C600.3 266.7 627.7 280.3 654.8 274.3C682 268.3 709 242.7 736.2 235.8C763.3 229 790.7 241 818 256.8C845.3 272.7 872.7 292.3 886.3 302.2L900 312L900 278L886.3 263.8C872.7 249.7 845.3 221.3 818 204.2C790.7 187 763.3 181 736.2 187.7C709 194.3 682 213.7 654.8 218.8C627.7 224 600.3 215 573 218.8C545.7 222.7 518.3 239.3 491 238.7C463.7 238 436.3 220 409 214.7C381.7 209.3 354.3 216.7 327 219.7C299.7 222.7 272.3 221.3 245.2 209.3C218 197.3 191 174.7 163.8 164.2C136.7 153.7 109.3 155.3 82 166.7C54.7 178 27.3 199 13.7 209.5L0 220Z" fill="#ff0083"></path><path d="M0 330L13.7 324C27.3 318 54.7 306 82 298.5C109.3 291 136.7 288 163.8 291C191 294 218 303 245.2 310.5C272.3 318 299.7 324 327 318.7C354.3 313.3 381.7 296.7 409 302.7C436.3 308.7 463.7 337.3 491 343.3C518.3 349.3 545.7 332.7 573 331.2C600.3 329.7 627.7 343.3 654.8 339.7C682 336 709 315 736.2 303C763.3 291 790.7 288 818 301.5C845.3 315 872.7 345 886.3 360L900 375L900 310L886.3 300.2C872.7 290.3 845.3 270.7 818 254.8C790.7 239 763.3 227 736.2 233.8C709 240.7 682 266.3 654.8 272.3C627.7 278.3 600.3 264.7 573 270.7C545.7 276.7 518.3 302.3 491 299.3C463.7 296.3 436.3 264.7 409 252.7C381.7 240.7 354.3 248.3 327 255.8C299.7 263.3 272.3 270.7 245.2 268.3C218 266 191 254 163.8 247.3C136.7 240.7 109.3 239.3 82 246.8C54.7 254.3 27.3 270.7 13.7 278.8L0 287Z" fill="#dc0073"></path><path d="M0 451L13.7 451C27.3 451 54.7 451 82 451C109.3 451 136.7 451 163.8 451C191 451 218 451 245.2 451C272.3 451 299.7 451 327 451C354.3 451 381.7 451 409 451C436.3 451 463.7 451 491 451C518.3 451 545.7 451 573 451C600.3 451 627.7 451 654.8 451C682 451 709 451 736.2 451C763.3 451 790.7 451 818 451C845.3 451 872.7 451 886.3 451L900 451L900 373L886.3 358C872.7 343 845.3 313 818 299.5C790.7 286 763.3 289 736.2 301C709 313 682 334 654.8 337.7C627.7 341.3 600.3 327.7 573 329.2C545.7 330.7 518.3 347.3 491 341.3C463.7 335.3 436.3 306.7 409 300.7C381.7 294.7 354.3 311.3 327 316.7C299.7 322 272.3 316 245.2 308.5C218 301 191 292 163.8 289C136.7 286 109.3 289 82 296.5C54.7 304 27.3 316 13.7 322L0 328Z" fill="#ba0062"></path></svg>